<svg xmlns="http://www.w3.org/2000/svg" version="1.1" xmlns:xlink="http://www.w3.org/1999/xlink" xmlns:svgjs="http://svgjs.dev/svgjs" width="1500" height="500" viewBox="0 0 1500 500"><g transform="matrix(1,0,0,1,-0.9090909090911055,-1.3892291778335277)"><svg viewBox="0 0 396 132" data-background-color="#282634" preserveAspectRatio="xMidYMid meet" height="500" width="1500" xmlns="http://www.w3.org/2000/svg" xmlns:xlink="http://www.w3.org/1999/xlink"><g id="tight-bounds" transform="matrix(1,0,0,1,0.24000000000003752,0.36675650294804996)"><svg viewBox="0 0 395.5199999999999 131.26641532324138" height="131.26641532324138" width="395.5199999999999"><g><svg viewBox="0 0 655.0947067232969 217.41488129246892" height="131.26641532324138" width="395.5199999999999"><g transform="matrix(1,0,0,1,259.5747067232969,64.06098629379285)"><svg viewBox="0 0 395.52 89.29290870488322" height="89.29290870488322" width="395.52"><g id="textblocktransform"><svg viewBox="0 0 395.52 89.29290870488322" height="89.29290870488322" width="395.52" id="textblock"><g><svg viewBox="0 0 395.52 89.29290870488322" height="89.29290870488322" width="395.52"><g transform="matrix(1,0,0,1,0,0)"><svg width="395.52" viewBox="3.8 -31.5 138.98 31.9" height="89.29290870488322" data-palette-color="#f10045"><g class="wordmark-text-0" data-fill-palette-color="primary" id="text-0"><path d="M14.5 0L3.8 0 3.8-29.55 4.6-29.55 4.6-0.8 14.5-0.8 14.5 0ZM24.05 0.4L24.05 0.4Q21.95 0.4 20.72-0.18 19.5-0.75 18.95-1.73 18.4-2.7 18.25-3.85 18.1-5 18.1-6.15L18.1-6.15 18.1-24.75 18.9-24.75 18.9-6.6Q18.9-5.15 19.15-3.7 19.4-2.25 20.47-1.33 21.55-0.4 24.05-0.4L24.05-0.4Q26.8-0.4 28.05-1.78 29.3-3.15 29.5-5.3L29.5-5.3 29.5-24.75 30.3-24.75 30.3 0 29.6 0 29.5-2.5Q28.95-1.35 27.67-0.48 26.4 0.4 24.05 0.4ZM41.7 0.2L41.7 0.2Q40.55 0.2 39.32-0.2 38.1-0.6 37.25-1.83 36.4-3.05 36.4-5.6L36.4-5.6 36.4-7.3Q36.4-8.9 37.12-10.1 37.85-11.3 38.87-12.13 39.9-12.95 40.87-13.48 41.85-14 42.3-14.25L42.3-14.25Q44.3-15.35 45.42-16.18 46.55-17 47.05-17.88 47.55-18.75 47.55-20L47.55-20 47.55-20.7Q47.55-22.4 46.82-23.15 46.1-23.9 45-24.1 43.9-24.3 42.75-24.3L42.75-24.3Q40.55-24.3 39.47-23.55 38.4-22.8 38.07-21.55 37.75-20.3 37.75-18.75L37.75-18.75 37.75-16.7 36.95-16.7 36.95-18.85Q36.95-21.75 38.1-23.43 39.25-25.1 42.75-25.1L42.75-25.1Q45.45-25.1 46.62-24.4 47.8-23.7 48.07-22.58 48.35-21.45 48.35-20.1L48.35-20.1 48.35 0 47.6 0 47.6-3.65Q47-1.9 45.47-0.85 43.95 0.2 41.7 0.2ZM41.85-0.6L41.85-0.6Q44.05-0.6 45.27-1.55 46.5-2.5 47.02-4.15 47.55-5.8 47.55-7.85L47.55-7.85 47.55-17.05Q46.75-15.95 45.37-15.13 44-14.3 42.55-13.45L42.55-13.45Q41.3-12.75 40.07-11.98 38.85-11.2 38.02-10 37.2-8.8 37.2-6.9L37.2-6.9 37.2-5.6Q37.2-3.25 37.95-2.2 38.7-1.15 39.8-0.88 40.9-0.6 41.85-0.6ZM55.59 0L54.79 0 54.79-24.75 55.49-24.75 55.59-22.15Q56.14-23.3 57.42-24.23 58.69-25.15 61.04-25.15L61.04-25.15Q63.14-25.15 64.37-24.58 65.59-24 66.14-23.03 66.69-22.05 66.84-20.9 66.99-19.75 66.99-18.6L66.99-18.6 66.99 0 66.19 0 66.19-18.15Q66.19-19.65 65.94-21.08 65.69-22.5 64.62-23.43 63.54-24.35 61.04-24.35L61.04-24.35Q58.29-24.35 56.94-22.85 55.59-21.35 55.59-19.2L55.59-19.2 55.59 0Z" fill="#f10045" data-fill-palette-color="primary"></path><path d="M79.34 0L78.54 0 78.54-29.55 90.79-29.55 90.79-28.75 79.34-28.75 79.34-15.95 88.24-15.95 88.24-15.15 79.34-15.15 79.34 0ZM100.63 0.35L100.63 0.35Q98.48 0.35 97.26-0.23 96.03-0.8 95.48-1.75 94.93-2.7 94.78-3.88 94.63-5.05 94.63-6.2L94.63-6.2 94.63-18.6Q94.63-19.75 94.78-20.9 94.93-22.05 95.51-23.03 96.08-24 97.33-24.58 98.58-25.15 100.83-25.15L100.83-25.15Q103.58-25.15 104.83-24.15 106.08-23.15 106.46-21.65 106.83-20.15 106.83-18.6L106.83-18.6 106.83-6.2Q106.83-4.65 106.46-3.15 106.08-1.65 104.79-0.65 103.48 0.35 100.63 0.35ZM100.63-0.45L100.63-0.45Q103.23-0.45 104.36-1.38 105.48-2.3 105.76-3.68 106.04-5.05 106.04-6.35L106.04-6.35 106.04-18.45Q106.04-19.8 105.76-21.15 105.48-22.5 104.41-23.43 103.33-24.35 100.83-24.35L100.83-24.35Q98.83-24.35 97.71-23.8 96.58-23.25 96.11-22.38 95.63-21.5 95.53-20.48 95.43-19.45 95.43-18.45L95.43-18.45 95.43-6.35Q95.43-5.35 95.53-4.33 95.63-3.3 96.08-2.43 96.53-1.55 97.61-1 98.68-0.45 100.63-0.45ZM118.73 0.35L118.73 0.35Q116.58 0.35 115.36-0.23 114.13-0.8 113.58-1.75 113.03-2.7 112.88-3.88 112.73-5.05 112.73-6.2L112.73-6.2 112.73-18.6Q112.73-19.75 112.88-20.9 113.03-22.05 113.61-23.03 114.18-24 115.43-24.58 116.68-25.15 118.93-25.15L118.93-25.15Q121.68-25.15 122.93-24.15 124.18-23.15 124.56-21.65 124.93-20.15 124.93-18.6L124.93-18.6 124.93-6.2Q124.93-4.65 124.56-3.15 124.18-1.65 122.88-0.65 121.58 0.35 118.73 0.35ZM118.73-0.45L118.73-0.45Q121.33-0.45 122.46-1.38 123.58-2.3 123.86-3.68 124.13-5.05 124.13-6.35L124.13-6.35 124.13-18.45Q124.13-19.8 123.86-21.15 123.58-22.5 122.51-23.43 121.43-24.35 118.93-24.35L118.93-24.35Q116.93-24.35 115.81-23.8 114.68-23.25 114.21-22.38 113.73-21.5 113.63-20.48 113.53-19.45 113.53-18.45L113.53-18.45 113.53-6.35Q113.53-5.35 113.63-4.33 113.73-3.3 114.18-2.43 114.63-1.55 115.71-1 116.78-0.45 118.73-0.45ZM136.78 0.35L136.78 0.35Q133.98 0.35 132.71-0.65 131.43-1.65 131.13-3.15 130.83-4.65 130.83-6.2L130.83-6.2 130.83-18.6Q130.83-19.75 130.98-20.9 131.13-22.05 131.68-23.03 132.23-24 133.46-24.58 134.68-25.15 136.78-25.15L136.78-25.15Q138.53-25.15 139.58-24.78 140.63-24.4 141.21-23.95 141.78-23.5 141.98-23.3L141.98-23.3 141.98-31.5 142.78-31.5 142.78 0 142.13 0 142.03-2.5Q141.68-1.45 140.28-0.55 138.88 0.35 136.78 0.35ZM136.78-0.45L136.78-0.45Q138.88-0.45 140.01-1.28 141.13-2.1 141.56-3.45 141.98-4.8 141.98-6.35L141.98-6.35 141.98-21.85Q141.83-22.2 141.41-22.78 140.98-23.35 139.91-23.85 138.83-24.35 136.78-24.35L136.78-24.35Q134.83-24.35 133.78-23.8 132.73-23.25 132.28-22.38 131.83-21.5 131.73-20.48 131.63-19.45 131.63-18.45L131.63-18.45 131.63-6.35Q131.63-5.35 131.73-4.33 131.83-3.3 132.28-2.43 132.73-1.55 133.78-1 134.83-0.45 136.78-0.45Z" fill="#dcdcdc" data-fill-palette-color="secondary"></path></g></svg></g></svg></g></svg></g></svg></g><g><svg viewBox="0 0 217.41488129246892 217.41488129246892" height="217.41488129246892" width="217.41488129246892"><g><svg></svg></g><g id="icon-0"><svg viewBox="0 0 217.41488129246892 217.41488129246892" height="217.41488129246892" width="217.41488129246892"><g><path d="M0 108.707c0-60.037 48.67-108.707 108.707-108.707 60.037 0 108.707 48.67 108.708 108.707 0 60.037-48.67 108.707-108.708 108.708-60.037 0-108.707-48.67-108.707-108.708zM108.707 209.362c55.59 0 100.655-45.065 100.655-100.655 0-55.59-45.065-100.655-100.655-100.654-55.59 0-100.655 45.065-100.654 100.654 0 55.59 45.065 100.655 100.654 100.655z" data-fill-palette-color="accent" fill="#dcdcdc" stroke="transparent"></path></g><g transform="matrix(1,0,0,1,45.79864482745548,59.137478616587394)"><svg viewBox="0 0 125.81759163755795 99.13992405929413" height="99.13992405929413" width="125.81759163755795"><g><svg xmlns="http://www.w3.org/2000/svg" xmlns:xlink="http://www.w3.org/1999/xlink" version="1.1" x="0" y="0" viewBox="5.208 14.624 89.792 70.753" enable-background="new 0 0 100 100" xml:space="preserve" height="99.13992405929413" width="125.81759163755795" class="icon-dxe-0" data-fill-palette-color="accent" id="dxe-0"><g fill="#dcdcdc" data-fill-palette-color="accent"><polygon points="32.302,36.596 5.979,25.908 11.448,23.911 37.458,34.471  " fill="#dcdcdc" data-fill-palette-color="accent"></polygon></g><g fill="#dcdcdc" data-fill-palette-color="accent"><polygon points="44.692,31.671 18.37,20.983 23.838,18.986 49.849,29.546  " fill="#dcdcdc" data-fill-palette-color="accent"></polygon></g><g fill="#dcdcdc" data-fill-palette-color="accent"><polygon points="55.466,27.309 29.144,16.621 34.612,14.624 60.623,25.184  " fill="#dcdcdc" data-fill-palette-color="accent"></polygon></g><g fill="#dcdcdc" data-fill-palette-color="accent"><polygon points="31.531,47.455 7.105,37.538 5.208,32.566 31.499,43.226  " fill="#dcdcdc" data-fill-palette-color="accent"></polygon></g><g fill="#dcdcdc" data-fill-palette-color="accent"><polygon points="31.531,56.002 13.015,48.446 11.32,43.553 31.499,51.772  " fill="#dcdcdc" data-fill-palette-color="accent"></polygon></g><g fill="#dcdcdc" data-fill-palette-color="accent"><polygon points="31.531,64.634 21.308,60.437 19.025,55.304 31.499,60.404  " fill="#dcdcdc" data-fill-palette-color="accent"></polygon></g><g fill="#dcdcdc" data-fill-palette-color="accent"><path d="M35.526 72.919L64.871 85.376 64.872 51.977 35.526 39.506zM40.088 46.218L60.702 54.97V78.418L40.088 69.667z" fill="#dcdcdc" data-fill-palette-color="accent"></path><path d="M83.089 44.584V44.157L81.933 44.651 83.089 44.15 82.587 43.946 94.498 38.895 65.264 27.309 36.06 38.882 65.264 51.293 77.507 46.101 78.041 46.318V46.725L65.655 51.978 65.654 85.377 95 72.919V39.532zM83.839 39.251L77.573 41.91 59.005 34.37 65.264 31.89zM65.264 47.137L46.688 39.252 53.748 36.454 72.496 44.067zM90.26 69.539L70.004 78.14V55.098L78.041 51.686V57.165L79.286 54.585 80.132 55.065 80.912 53.225 81.636 54.238 82.249 53.625 83.089 55.007V49.542L90.26 46.498z" fill="#dcdcdc" data-fill-palette-color="accent"></path></g><path d="M87.667 57.529C87.667 58.825 86.615 60.316 85.317 60.86 84.021 61.401 82.969 60.79 82.969 59.493 82.969 58.194 84.021 56.703 85.317 56.162 86.615 55.619 87.667 56.231 87.667 57.529" fill="#dcdcdc" data-fill-palette-color="accent"></path><path d="M80.641 60.467C80.641 61.763 79.589 63.253 78.29 63.796 76.994 64.339 75.942 63.725 75.942 62.429S76.994 59.64 78.29 59.098C79.589 58.557 80.641 59.169 80.641 60.467" fill="#dcdcdc" data-fill-palette-color="accent"></path><path d="M81.579 70.204C77.99 71.704 74.922 70.421 74.285 67.154L76.023 66.115C76.507 68.604 78.845 69.582 81.579 68.439 84.316 67.295 86.653 64.365 87.138 61.47L88.876 61.056C88.239 64.856 85.171 68.704 81.579 70.204" fill="#dcdcdc" data-fill-palette-color="accent"></path></svg></g></svg></g></svg></g></svg></g></svg></g><defs></defs></svg><rect width="395.5199999999999" height="131.26641532324138" fill="none" stroke="none" visibility="hidden"></rect></g></svg></g></svg>